<svg width="25" height="25" viewBox="0 0 25 25" fill="none" xmlns="http://www.w3.org/2000/svg">
<path d="M17 8V8.01M4.5 8.5C4.5 7.43913 4.92143 6.42172 5.67157 5.67157C6.42172 4.92143 7.43913 4.5 8.5 4.5H16.5C17.5609 4.5 18.5783 4.92143 19.3284 5.67157C20.0786 6.42172 20.5 7.43913 20.5 8.5V16.5C20.5 17.5609 20.0786 18.5783 19.3284 19.3284C18.5783 20.0786 17.5609 20.5 16.5 20.5H8.5C7.43913 20.5 6.42172 20.0786 5.67157 19.3284C4.92143 18.5783 4.5 17.5609 4.5 16.5V8.5ZM9.5 12.5C9.5 13.2956 9.81607 14.0587 10.3787 14.6213C10.9413 15.1839 11.7044 15.5 12.5 15.5C13.2956 15.5 14.0587 15.1839 14.6213 14.6213C15.1839 14.0587 15.5 13.2956 15.5 12.5C15.5 11.7044 15.1839 10.9413 14.6213 10.3787C14.0587 9.81607 13.2956 9.5 12.5 9.5C11.7044 9.5 10.9413 9.81607 10.3787 10.3787C9.81607 10.9413 9.5 11.7044 9.5 12.5Z" stroke="#EFB255" stroke-width="2" stroke-linecap="round" stroke-linejoin="round"/>
</svg>
