<svg width="25" height="25" viewBox="0 0 25 25" fill="none" xmlns="http://www.w3.org/2000/svg">
<path d="M8.5 11.5V16.5M8.5 8.5V8.51M12.5 16.5V11.5M16.5 16.5V13.5C16.5 12.9696 16.2893 12.4609 15.9142 12.0858C15.5391 11.7107 15.0304 11.5 14.5 11.5C13.9696 11.5 13.4609 11.7107 13.0858 12.0858C12.7107 12.4609 12.5 12.9696 12.5 13.5M4.5 6.5C4.5 5.96957 4.71071 5.46086 5.08579 5.08579C5.46086 4.71071 5.96957 4.5 6.5 4.5H18.5C19.0304 4.5 19.5391 4.71071 19.9142 5.08579C20.2893 5.46086 20.5 5.96957 20.5 6.5V18.5C20.5 19.0304 20.2893 19.5391 19.9142 19.9142C19.5391 20.2893 19.0304 20.5 18.5 20.5H6.5C5.96957 20.5 5.46086 20.2893 5.08579 19.9142C4.71071 19.5391 4.5 19.0304 4.5 18.5V6.5Z" stroke="#EFB255" stroke-width="2" stroke-linecap="round" stroke-linejoin="round"/>
</svg>
