<svg width="25" height="25" viewBox="0 0 25 25" fill="none" xmlns="http://www.w3.org/2000/svg">
<path d="M15.5 7.5C16.0304 7.5 16.5391 7.71071 16.9142 8.08579C17.2893 8.46086 17.5 8.96957 17.5 9.5M15.5 3.5C17.0913 3.5 18.6174 4.13214 19.7426 5.25736C20.8679 6.38258 21.5 7.9087 21.5 9.5M5.5 4.5H9.5L11.5 9.5L9 11C10.071 13.1715 11.8285 14.929 14 16L15.5 13.5L20.5 15.5V19.5C20.5 20.0304 20.2893 20.5391 19.9142 20.9142C19.5391 21.2893 19.0304 21.5 18.5 21.5C14.5993 21.263 10.9202 19.6065 8.15683 16.8432C5.3935 14.0798 3.73705 10.4007 3.5 6.5C3.5 5.96957 3.71071 5.46086 4.08579 5.08579C4.46086 4.71071 4.96957 4.5 5.5 4.5Z" stroke="#EFB255" stroke-width="2" stroke-linecap="round" stroke-linejoin="round"/>
</svg>
